# xmcd
#
# Track frame offsets:
#	150
#	11716
#	22172
#	33484
#	42328
#	54588
#	67167
#	77166
#	86483
#	97288
#	107167
#	113647
#	127219
#	137093
#	144604
#	153977
#	165600
#	176028
#	189193
#	200607
#	209163
#	218381
#	229674
#	241609
#	253418
#	262402
#	271993
#	281197
#	292079
#	304710
#	316460
#	326366
#	334685
#	343128
#
# Disc length: 4737 seconds
#
# Revision: 0
# Processed by: cddbd v1.5.2PL0 Copyright (c) Steve Scherf et al.
# Submitted via: audiograbber 1.83.01
#
DISCID=1a127f22
DTITLE=Various Artist - Teenage Blues (Disc3)
DYEAR=2013
DGENRE=Rockabilly
TTITLE0=James Gallagher - Ford And Shaker
TTITLE1=Gary Link And The Rock-A-Fellas - Don't You Know
TTITLE2=Daniel Nix With The Compensation Boys - Compensation Blues
TTITLE3=Ray Strong - You're Gonna Reap What You Sow
TTITLE4=Gary Link And The Rock-A-Fellas - Rhythm Rock
TTITLE5=James Gallagher - Are You The One
TTITLE6=Jeff Daniels - Switch Blade Sam
TTITLE7=Dickie Damron - Gonna Have A Party
TTITLE8=Leon Kelly And The Rhythm Rockers - Rockaway
TTITLE9=Junior Gravley And The Rock-A-Tones - You Lied To Me Honey
TTITLE10=Dickie Damron - Rockin' Baby
TTITLE11=Junior Gravley And The Rock-A-Tones - Take My Hand
TTITLE12=Chandos McRill And The Excellons - Poor Me
TTITLE13=Bill Loop And His Seneca Indian Boys - My Foolish Heart
TTITLE14=Chandos McRill And The Excellons - The Toddle
TTITLE15=Warren Robbe - Single Man
TTITLE16=Jimmy Dane And His Great Danes - Please Have Mercy
TTITLE17=Blankenship Brothers With The Sundown Playboys - Lonesome Old Jail
TTITLE18=Jimmy Dane And His Great Danes - Tattle Tale
TTITLE19=Johnny Harris - Tired Of Crawling, Gonna Start To Run
TTITLE20=The Hi-Tombs - Sweet Rockin' Mama
TTITLE21=Lonnie Irving - I Got Blues On My Mind
TTITLE22=The Hi-Tombs - Weeping Willow Rock
TTITLE23=Red Moore And His Rhythm Drifters - Crawdad Song
TTITLE24=The Love Brothers - Baby, I'll Never Let You Go
TTITLE25=Romeo Sullivan And The Serenaders - Haunting Rhythm
TTITLE26=Larry Hollis - Oil Field Rock And Roll
TTITLE27=Beck Brothers - Big Rocker
TTITLE28=Ralph Collier - You'll Come Runnin' Home To Me
TTITLE29=Beck Brothers - Just Like You
TTITLE30=Missouri Walker And The Ozark Ramblers - Lonesome Guitar
TTITLE31=Jorris Hennessee And The Roundup Boys - Jorris Boogie
TTITLE32=The Tornadoes - Tornado Twist
TTITLE33=Jerry And The String Trio - Judgement Day
EXTD=
EXTT0=
EXTT1=
EXTT2=
EXTT3=
EXTT4=
EXTT5=
EXTT6=
EXTT7=
EXTT8=
EXTT9=
EXTT10=
EXTT11=
EXTT12=
EXTT13=
EXTT14=
EXTT15=
EXTT16=
EXTT17=
EXTT18=
EXTT19=
EXTT20=
EXTT21=
EXTT22=
EXTT23=
EXTT24=
EXTT25=
EXTT26=
EXTT27=
EXTT28=
EXTT29=
EXTT30=
EXTT31=
EXTT32=
EXTT33=
PLAYORDER=
